<svg width="650" height="650" viewBox="0 0 650 650" fill="none" xmlns="http://www.w3.org/2000/svg">
<rect width="650" height="650" rx="100" fill="#ECECEC"/>
<path d="M222.356 438V371.598H43.142V338.754L218.786 180.603H251.63V342.324H291.614V371.598H251.63V438H222.356ZM80.627 342.324H222.356V220.23L80.627 342.324ZM322.126 438V341.61C322.126 333.518 324.03 326.259 327.838 319.833C331.646 313.169 336.763 307.933 343.189 304.125C349.853 300.317 357.231 298.413 365.323 298.413H538.468C542.276 298.413 545.489 297.104 548.107 294.486C550.963 291.63 552.391 288.298 552.391 284.49V224.157C552.391 220.349 550.963 217.136 548.107 214.518C545.489 211.662 542.276 210.234 538.468 210.234H365.323C361.515 210.234 358.183 211.662 355.327 214.518C352.709 217.136 351.4 220.349 351.4 224.157V234.153H322.126V224.157C322.126 216.065 324.03 208.806 327.838 202.38C331.646 195.716 336.763 190.48 343.189 186.672C349.853 182.626 357.231 180.603 365.323 180.603H538.468C546.322 180.603 553.462 182.626 559.888 186.672C566.552 190.48 571.788 195.716 575.596 202.38C579.642 208.806 581.665 216.065 581.665 224.157V284.49C581.665 292.344 579.642 299.603 575.596 306.267C571.788 312.693 566.552 317.929 559.888 321.975C553.462 325.783 546.322 327.687 538.468 327.687H365.323C361.515 327.687 358.183 329.115 355.327 331.971C352.709 334.589 351.4 337.802 351.4 341.61V394.803C351.4 398.611 352.709 401.943 355.327 404.799C358.183 407.417 361.515 408.726 365.323 408.726H581.665V438H322.126Z" fill="#0F172A"/>
<rect x="322" y="473" width="257" height="40" fill="#0F172A"/>
<path d="M350.691 505V481.24H370.491C371.217 481.24 371.877 481.416 372.471 481.768C373.087 482.12 373.571 482.604 373.923 483.22C374.275 483.814 374.451 484.474 374.451 485.2V501.04C374.451 501.766 374.275 502.437 373.923 503.053C373.571 503.647 373.087 504.12 372.471 504.472C371.877 504.824 371.217 505 370.491 505H350.691ZM354.651 502.327H370.491C370.843 502.327 371.14 502.206 371.382 501.964C371.646 501.7 371.778 501.392 371.778 501.04V485.2C371.778 484.848 371.646 484.551 371.382 484.309C371.14 484.045 370.843 483.913 370.491 483.913H354.651C354.299 483.913 353.991 484.045 353.727 484.309C353.485 484.551 353.364 484.848 353.364 485.2V501.04C353.364 501.392 353.485 501.7 353.727 501.964C353.991 502.206 354.299 502.327 354.651 502.327ZM378.212 505V485.2C378.212 484.474 378.388 483.814 378.74 483.22C379.092 482.604 379.565 482.12 380.159 481.768C380.775 481.416 381.446 481.24 382.172 481.24H398.012C398.738 481.24 399.398 481.416 399.992 481.768C400.608 482.12 401.092 482.604 401.444 483.22C401.796 483.814 401.972 484.474 401.972 485.2V505H399.299V496.321H380.885V505H378.212ZM380.885 493.648H399.299V485.2C399.299 484.848 399.167 484.551 398.903 484.309C398.661 484.045 398.364 483.913 398.012 483.913H382.172C381.82 483.913 381.512 484.045 381.248 484.309C381.006 484.551 380.885 484.848 380.885 485.2V493.648ZM406.062 505V481.24H408.768V505H406.062ZM412.823 505V481.207H415.496V502.327H436.583V505H412.823ZM442.74 505V496.057L431.817 481.24H434.886L444.093 492.856L453.201 481.24H456.336L445.413 496.057V505H442.74ZM468.253 505V481.24H488.053C488.779 481.24 489.439 481.416 490.033 481.768C490.649 482.12 491.133 482.604 491.485 483.22C491.837 483.814 492.013 484.474 492.013 485.2V501.04C492.013 501.766 491.837 502.437 491.485 503.053C491.133 503.647 490.649 504.12 490.033 504.472C489.439 504.824 488.779 505 488.053 505H468.253ZM472.213 502.327H488.053C488.405 502.327 488.702 502.206 488.944 501.964C489.208 501.7 489.34 501.392 489.34 501.04V485.2C489.34 484.848 489.208 484.551 488.944 484.309C488.702 484.045 488.405 483.913 488.053 483.913H472.213C471.861 483.913 471.553 484.045 471.289 484.309C471.047 484.551 470.926 484.848 470.926 485.2V501.04C470.926 501.392 471.047 501.7 471.289 501.964C471.553 502.206 471.861 502.327 472.213 502.327ZM495.775 505V481.24H517.456V483.913H498.448V491.767H513.727V494.473H498.448V502.327H517.456V505H495.775ZM534.042 505L520.281 481.24H523.416L535.593 502.393L547.737 481.24H550.872L537.144 505H534.042Z" fill="#ECECEC"/>
</svg>
