<svg width="1297" height="650" viewBox="0 0 1297 650" fill="none" xmlns="http://www.w3.org/2000/svg">
<rect width="1297" height="650" rx="100" fill="#ECECEC"/>
<path d="M263.167 438V371.598H83.9528V338.754L259.597 180.603H292.441V342.324H332.425V371.598H292.441V438H263.167ZM121.438 342.324H263.167V220.23L121.438 342.324ZM362.937 438V341.61C362.937 333.518 364.841 326.259 368.649 319.833C372.457 313.169 377.574 307.933 384 304.125C390.664 300.317 398.042 298.413 406.134 298.413H579.279C583.087 298.413 586.3 297.104 588.918 294.486C591.774 291.63 593.202 288.298 593.202 284.49V224.157C593.202 220.349 591.774 217.136 588.918 214.518C586.3 211.662 583.087 210.234 579.279 210.234H406.134C402.326 210.234 398.994 211.662 396.138 214.518C393.52 217.136 392.211 220.349 392.211 224.157V234.153H362.937V224.157C362.937 216.065 364.841 208.806 368.649 202.38C372.457 195.716 377.574 190.48 384 186.672C390.664 182.626 398.042 180.603 406.134 180.603H579.279C587.133 180.603 594.273 182.626 600.699 186.672C607.363 190.48 612.599 195.716 616.407 202.38C620.453 208.806 622.476 216.065 622.476 224.157V284.49C622.476 292.344 620.453 299.603 616.407 306.267C612.599 312.693 607.363 317.929 600.699 321.975C594.273 325.783 587.133 327.687 579.279 327.687H406.134C402.326 327.687 398.994 329.115 396.138 331.971C393.52 334.589 392.211 337.802 392.211 341.61V394.803C392.211 398.611 393.52 401.943 396.138 404.799C398.994 407.417 402.326 408.726 406.134 408.726H622.476V438H362.937Z" fill="#0F172A"/>
<rect x="662.528" y="306" width="550.472" height="132" fill="#0F172A"/>
<path d="M719.692 399.493V347.653H762.892C764.476 347.653 765.916 348.037 767.212 348.805C768.556 349.573 769.612 350.629 770.38 351.973C771.148 353.269 771.532 354.709 771.532 356.293V390.853C771.532 392.437 771.148 393.901 770.38 395.245C769.612 396.541 768.556 397.573 767.212 398.341C765.916 399.109 764.476 399.493 762.892 399.493H719.692ZM728.332 393.661H762.892C763.66 393.661 764.308 393.397 764.836 392.869C765.412 392.293 765.7 391.621 765.7 390.853V356.293C765.7 355.525 765.412 354.877 764.836 354.349C764.308 353.773 763.66 353.485 762.892 353.485H728.332C727.564 353.485 726.892 353.773 726.316 354.349C725.788 354.877 725.524 355.525 725.524 356.293V390.853C725.524 391.621 725.788 392.293 726.316 392.869C726.892 393.397 727.564 393.661 728.332 393.661ZM779.739 399.493V356.293C779.739 354.709 780.123 353.269 780.891 351.973C781.659 350.629 782.691 349.573 783.987 348.805C785.331 348.037 786.795 347.653 788.379 347.653H822.939C824.523 347.653 825.963 348.037 827.259 348.805C828.603 349.573 829.659 350.629 830.427 351.973C831.195 353.269 831.579 354.709 831.579 356.293V399.493H825.747V380.557H785.571V399.493H779.739ZM785.571 374.725H825.747V356.293C825.747 355.525 825.459 354.877 824.883 354.349C824.355 353.773 823.707 353.485 822.939 353.485H788.379C787.611 353.485 786.939 353.773 786.363 354.349C785.835 354.877 785.571 355.525 785.571 356.293V374.725ZM840.503 399.493V347.653H846.407V399.493H840.503ZM855.253 399.493V347.581H861.085V393.661H907.093V399.493H855.253ZM920.527 399.493V379.981L896.695 347.653H903.391L923.479 372.997L943.351 347.653H950.191L926.359 379.981V399.493H920.527ZM976.192 399.493V347.653H1019.39C1020.98 347.653 1022.42 348.037 1023.71 348.805C1025.06 349.573 1026.11 350.629 1026.88 351.973C1027.65 353.269 1028.03 354.709 1028.03 356.293V390.853C1028.03 392.437 1027.65 393.901 1026.88 395.245C1026.11 396.541 1025.06 397.573 1023.71 398.341C1022.42 399.109 1020.98 399.493 1019.39 399.493H976.192ZM984.832 393.661H1019.39C1020.16 393.661 1020.81 393.397 1021.34 392.869C1021.91 392.293 1022.2 391.621 1022.2 390.853V356.293C1022.2 355.525 1021.91 354.877 1021.34 354.349C1020.81 353.773 1020.16 353.485 1019.39 353.485H984.832C984.064 353.485 983.392 353.773 982.816 354.349C982.288 354.877 982.024 355.525 982.024 356.293V390.853C982.024 391.621 982.288 392.293 982.816 392.869C983.392 393.397 984.064 393.661 984.832 393.661ZM1036.24 399.493V347.653H1083.54V353.485H1042.07V370.621H1075.41V376.525H1042.07V393.661H1083.54V399.493H1036.24ZM1119.73 399.493L1089.71 347.653H1096.55L1123.12 393.805L1149.61 347.653H1156.45L1126.5 399.493H1119.73Z" fill="#ECECEC"/>
</svg>
